<!DOCTYPE svg PUBLIC "-//W3C//DTD SVG 1.1//EN" "http://www.w3.org/Graphics/SVG/1.1/DTD/svg11.dtd">
<!-- Uploaded to: SVG Repo, www.svgrepo.com, Transformed by: SVG Repo Mixer Tools -->
<svg fill="#a3a3a3" height="800px" width="800px" version="1.1" id="Layer_1" xmlns="http://www.w3.org/2000/svg" xmlns:xlink="http://www.w3.org/1999/xlink" viewBox="-140.18 -140.18 781.01 781.01" xml:space="preserve" stroke="#a3a3a3">
<g id="SVGRepo_bgCarrier" stroke-width="0"/>
<g id="SVGRepo_tracerCarrier" stroke-linecap="round" stroke-linejoin="round"/>
<g id="SVGRepo_iconCarrier"> <g> <g> <path d="M496.385,98.326c-4.267-4.267-9.6-7.467-16-7.467h-23.467l-65.067-54.4c-11.733-10.667-25.6-22.4-42.667-28.8 s-33.067-6.4-46.933-6.4c-13.867,0-42.667,0-59.733,25.6c-1.067,1.067-2.133,3.2-3.2,5.333 c-34.133-8.533-69.333-12.8-103.467-11.733c-11.733,0-24.533,1.067-37.333,6.4c-26.667,11.733-44.8,39.467-58.667,64h-19.2 c-6.4,0-11.733,2.133-16,7.467c-4.267,4.267-5.333,10.667-4.267,17.067l46.933,240c2.133,9.6,10.667,17.067,20.267,17.067h49.067 c-26.667,8.533-44.8,33.067-44.8,61.867c0,36.267,29.867,65.067,65.067,65.067c36.267,0,65.067-28.8,65.067-65.067 c0-28.8-18.133-53.333-44.8-61.867h185.6c-26.667,8.533-44.8,33.067-44.8,61.867c0,36.267,29.867,65.067,65.067,65.067 c35.2,0,65.067-28.8,65.067-65.067c0-28.8-18.133-53.333-44.8-61.867h50.133c9.6,0,18.133-6.4,20.267-17.067l45.867-240 C501.718,108.993,500.651,103.659,496.385,98.326z M113.451,67.393c6.4-2.133,12.8-3.2,22.4-3.2 c30.933-1.067,61.867,3.2,92.8,10.667c5.333,1.067,18.133,4.267,29.867-3.2c7.467-4.267,11.733-11.733,14.933-17.067 c1.067-1.067,1.067-2.133,2.133-3.2c4.267-5.333,9.6-7.467,25.6-7.467c11.733,0,22.4,0,32,3.2 c10.667,4.267,20.267,12.8,30.933,21.333l26.667,22.4H88.918C96.385,80.193,103.852,71.659,113.451,67.393z M160.385,434.326 c0,11.733-10.667,22.4-22.4,22.4s-22.4-9.6-22.4-22.4c0-11.733,9.6-22.4,22.4-22.4 C150.785,411.926,161.451,421.526,160.385,434.326z M385.451,434.326c1.067,11.733-9.6,22.4-22.4,22.4 c-11.733,0-22.4-9.6-22.4-22.4c0-11.733,9.6-22.4,22.4-22.4C375.852,411.926,385.451,421.526,385.451,434.326z M416.385,330.859 H84.651l-38.4-198.4h408.533L416.385,330.859z"/> </g> </g> </g>
</svg>